<svg width="25" height="28" viewBox="0 0 25 28" fill="none" xmlns="http://www.w3.org/2000/svg">
<path d="M22.4302 8.08131C22.446 8.32357 22.446 8.56588 22.446 8.80814C22.446 16.1973 17.2906 24.7114 7.86802 24.7114C4.96509 24.7114 2.26841 23.7942 0 22.2022C0.412451 22.2541 0.808984 22.2714 1.2373 22.2714C3.63257 22.2714 5.83755 21.3889 7.59834 19.8834C5.3458 19.8314 3.45811 18.2221 2.80771 16.007C3.125 16.0589 3.44224 16.0935 3.77539 16.0935C4.2354 16.0935 4.69546 16.0243 5.12373 15.9032C2.77603 15.384 1.01519 13.1344 1.01519 10.4175V10.3483C1.69727 10.7636 2.49048 11.0232 3.33115 11.0578C1.95107 10.0541 1.04692 8.34088 1.04692 6.40271C1.04692 5.36443 1.30068 4.41265 1.74487 3.582C4.26709 6.97378 8.05835 9.18879 12.3096 9.4311C12.2303 9.01578 12.1827 8.5832 12.1827 8.15056C12.1827 5.07023 14.4669 2.56104 17.3064 2.56104C18.7816 2.56104 20.1141 3.23593 21.0501 4.32615C22.208 4.08389 23.3184 3.61663 24.302 2.97636C23.9212 4.27426 23.1122 5.36448 22.0494 6.05663C23.0805 5.93556 24.0799 5.624 24.9999 5.19142C24.3021 6.29889 23.4295 7.28524 22.4302 8.08131Z" fill="white"/>
</svg>
