<svg width="21" height="18" viewBox="0 0 21 18" fill="none" xmlns="http://www.w3.org/2000/svg">
<g clip-path="url(#clip0)">
<path d="M0.44109 7.78867C0.324105 7.78867 0.211913 7.83515 0.129192 7.91787C0.0464718 8.00059 0 8.11278 0 8.22976C0 8.34675 0.0464718 8.45894 0.129192 8.54166C0.211913 8.62438 0.324105 8.67085 0.44109 8.67085H1.52176L2.77887 15.8386C2.89281 16.4497 3.21826 17.0012 3.69814 17.3964C4.17802 17.7916 4.78171 18.0053 5.40335 17.9999H14.6662C15.2873 17.9991 15.8882 17.78 16.364 17.3808C16.8397 16.9817 17.16 16.4279 17.2687 15.8165L18.5258 8.6488H19.6064C19.7234 8.6488 19.8356 8.60233 19.9183 8.51961C20.0011 8.43689 20.0475 8.32469 20.0475 8.20771C20.0475 8.09072 20.0011 7.97853 19.9183 7.89581C19.8356 7.81309 19.7234 7.76662 19.6064 7.76662H17.5113L14.8647 3.79681C15.258 3.42566 15.4995 2.92179 15.5425 2.38278C15.5856 1.84377 15.4271 1.30796 15.0977 0.879112C14.7684 0.450259 14.2916 0.158873 13.7597 0.0613766C13.2279 -0.0361195 12.6787 0.067211 12.2187 0.351359C11.7586 0.635507 11.4204 1.08026 11.2695 1.59949C11.1185 2.11872 11.1656 2.67549 11.4016 3.16199C11.6376 3.64849 12.0458 4.03011 12.547 4.23294C13.0483 4.43578 13.6069 4.44541 14.1149 4.25996L16.4526 7.78867H3.61694L5.95471 4.25996C6.46866 4.42693 7.02626 4.39737 7.51968 4.17701C8.0131 3.95665 8.40727 3.56115 8.62596 3.06698C8.84464 2.57282 8.87231 2.01512 8.7036 1.50174C8.53489 0.988365 8.18179 0.55579 7.7126 0.287682C7.24341 0.0195744 6.69147 -0.0650156 6.16352 0.0502725C5.63558 0.165561 5.16914 0.472535 4.85443 0.911824C4.53971 1.35111 4.39908 1.8915 4.45974 2.42848C4.5204 2.96545 4.77803 3.46085 5.1828 3.81887L2.53627 7.78867H0.44109ZM12.1079 2.20889C12.1079 1.95153 12.1842 1.69996 12.3272 1.48597C12.4702 1.27199 12.6734 1.10521 12.9112 1.00672C13.1489 0.908238 13.4106 0.88247 13.663 0.932677C13.9154 0.982885 14.1472 1.10681 14.3292 1.28879C14.5112 1.47077 14.6351 1.70262 14.6853 1.95504C14.7355 2.20745 14.7098 2.46908 14.6113 2.70684C14.5128 2.94461 14.346 3.14783 14.132 3.29081C13.9181 3.43379 13.6665 3.5101 13.4091 3.5101C13.064 3.5101 12.7331 3.37301 12.489 3.12899C12.245 2.88496 12.1079 2.55399 12.1079 2.20889ZM6.66046 0.929729C6.91781 0.929729 7.16939 1.00604 7.38337 1.14902C7.59735 1.292 7.76414 1.49522 7.86262 1.73299C7.96111 1.97076 7.98688 2.23239 7.93667 2.4848C7.88646 2.73721 7.76253 2.96906 7.58055 3.15104C7.39857 3.33302 7.16672 3.45695 6.91431 3.50716C6.6619 3.55736 6.40027 3.5316 6.1625 3.43311C5.92474 3.33462 5.72151 3.16784 5.57853 2.95386C5.43556 2.73988 5.35924 2.4883 5.35924 2.23094C5.35924 1.88584 5.49633 1.55487 5.74036 1.31085C5.98438 1.06682 6.31535 0.929729 6.66046 0.929729ZM16.4085 15.6621C16.3359 16.071 16.1213 16.4411 15.8026 16.7074C15.4839 16.9736 15.0815 17.1189 14.6662 17.1177H5.40335C4.98807 17.1189 4.58567 16.9736 4.26698 16.7074C3.94828 16.4411 3.73372 16.071 3.66105 15.6621L2.42599 8.67085H17.6436L16.4085 15.6621Z" fill="black"/>
</g>
<defs>
<clipPath id="clip0">
<rect width="21" height="18" fill="white"/>
</clipPath>
</defs>
</svg>
