<svg width="25" height="28" viewBox="0 0 25 28" fill="none" xmlns="http://www.w3.org/2000/svg">
<g clip-path="url(#clip0)">
<path d="M12.5058 7.51074C8.9567 7.51074 6.09398 10.2433 6.09398 13.6311C6.09398 17.0189 8.9567 19.7515 12.5058 19.7515C16.0549 19.7515 18.9176 17.0189 18.9176 13.6311C18.9176 10.2433 16.0549 7.51074 12.5058 7.51074ZM12.5058 17.6102C10.2123 17.6102 8.33728 15.8257 8.33728 13.6311C8.33728 11.4365 10.2067 9.65208 12.5058 9.65208C14.8049 9.65208 16.6743 11.4365 16.6743 13.6311C16.6743 15.8257 14.7993 17.6102 12.5058 17.6102ZM20.6754 7.26039C20.6754 8.05407 20.0058 8.68794 19.1799 8.68794C18.3484 8.68794 17.6844 8.04874 17.6844 7.26039C17.6844 6.47203 18.354 5.83283 19.1799 5.83283C20.0058 5.83283 20.6754 6.47203 20.6754 7.26039ZM24.9221 8.70925C24.8272 6.79696 24.3696 5.10307 22.902 3.70748C21.44 2.31188 19.6654 1.87509 17.6621 1.77921C15.5973 1.66735 9.40871 1.66735 7.34398 1.77921C5.34621 1.86976 3.57165 2.30655 2.10402 3.70215C0.636386 5.09775 0.184377 6.79164 0.083931 8.70392C-0.0332565 10.6748 -0.0332565 16.5821 0.083931 18.553C0.178797 20.4653 0.636386 22.1592 2.10402 23.5548C3.57165 24.9504 5.34063 25.3872 7.34398 25.483C9.40871 25.5949 15.5973 25.5949 17.6621 25.483C19.6654 25.3925 21.44 24.9557 22.902 23.5548C24.3641 22.1592 24.8217 20.4653 24.9221 18.553C25.0393 16.5821 25.0393 10.6801 24.9221 8.70925ZM22.2547 20.6677C21.8194 21.7117 20.9768 22.5161 19.8775 22.9369C18.2313 23.5601 14.325 23.4163 12.5058 23.4163C10.6866 23.4163 6.77478 23.5548 5.13415 22.9369C4.0404 22.5214 3.19777 21.7171 2.75692 20.6677C2.10402 19.0963 2.25469 15.3676 2.25469 13.6311C2.25469 11.8946 2.1096 8.1606 2.75692 6.59455C3.19219 5.55051 4.03482 4.74618 5.13415 4.32537C6.78036 3.70215 10.6866 3.84597 12.5058 3.84597C14.325 3.84597 18.2368 3.70747 19.8775 4.32537C20.9712 4.74086 21.8138 5.54519 22.2547 6.59455C22.9076 8.16593 22.7569 11.8946 22.7569 13.6311C22.7569 15.3676 22.9076 19.1017 22.2547 20.6677Z" fill="white"/>
</g>
<defs>
<clipPath id="clip0">
<rect width="25" height="27.2727" fill="white"/>
</clipPath>
</defs>
</svg>
